<?xml version="1.0" encoding="UTF-8"?>
<svg xmlns="http://www.w3.org/2000/svg" xmlns:xlink="http://www.w3.org/1999/xlink" width="128px" height="128px" viewBox="0 0 128 128" version="1.1">
<g id="surface1">
<path style=" stroke:none;fill-rule:evenodd;fill:rgb(8.235294%,45.098039%,27.843137%);fill-opacity:1;" d="M 118.105469 0.601562 C 119.28125 1.328125 120 2.613281 120 4 L 120 124 C 120 126.210938 118.210938 128 116 128 L 92 128 C 89.789062 128 88 126.210938 88 124 L 88 112 L 80 112 L 80 124 C 80 126.210938 78.210938 128 76 128 L 4 128 C 1.789062 128 0 126.210938 0 124 L 0 80 C 0 78.277344 1.101562 76.75 2.734375 76.207031 L 48 61.121094 L 48 36 C 48 34.484375 48.855469 33.101562 50.207031 32.425781 L 114.207031 0.425781 C 115.449219 -0.199219 116.925781 -0.128906 118.105469 0.601562 Z M 48 69.550781 L 8 82.878906 L 8 120 L 48 120 Z M 56 120 L 72 120 L 72 108 C 72 105.789062 73.789062 104 76 104 L 92 104 C 94.210938 104 96 105.789062 96 108 L 96 120 L 112 120 L 112 10.472656 L 56 38.472656 Z M 56 120 "/>
<path style=" stroke:none;fill-rule:nonzero;fill:rgb(8.235294%,45.098039%,27.843137%);fill-opacity:1;" d="M 16 88 L 24 88 L 24 96 L 16 96 Z M 32 88 L 40 88 L 40 96 L 32 96 Z M 16 104 L 24 104 L 24 112 L 16 112 Z M 32 104 L 40 104 L 40 112 L 32 112 Z M 64 72 L 72 72 L 72 80 L 64 80 Z M 80 72 L 88 72 L 88 80 L 80 80 Z M 64 88 L 72 88 L 72 96 L 64 96 Z M 80 88 L 88 88 L 88 96 L 80 96 Z M 96 72 L 104 72 L 104 80 L 96 80 Z M 96 88 L 104 88 L 104 96 L 96 96 Z M 64 56 L 72 56 L 72 64 L 64 64 Z M 80 56 L 88 56 L 88 64 L 80 64 Z M 96 56 L 104 56 L 104 64 L 96 64 Z M 64 40 L 72 40 L 72 48 L 64 48 Z M 80 40 L 88 40 L 88 48 L 80 48 Z M 96 40 L 104 40 L 104 48 L 96 48 Z M 96 24 L 104 24 L 104 32 L 96 32 Z M 96 24 "/>
</g>
</svg>
